<svg xmlns="http://www.w3.org/2000/svg" viewBox="0 0 128 128" width="128" height="128">
  <rect width="128" height="128" rx="28" fill="#000000"/>
  <!-- path is 128.295w × 61.776h; scale to 96px wide, center in 128×128 -->
  <g transform="translate(16, 41) scale(0.7483)">
    <path d="M62.5509 13.9902C61.8926 15.4974 61.3894 17.0875 61.0607 18.7408C57.8447 19.0486 55.2862 20.1164 53.1538 21.6587C50.5638 23.532 48.4903 26.1874 46.6697 29.3223C44.8421 32.4694 43.3506 35.9485 41.8266 39.4387C40.3345 42.8559 38.7902 46.3358 36.9093 49.1648C29.2023 60.7564 15.5208 61.7764 9.32476 61.7764H0V57.114H9.32476C15.3674 57.114 26.7468 56.0294 33.027 46.584C34.6427 44.1538 36.0321 41.0589 37.5539 37.5735C39.044 34.1611 40.6477 30.408 42.6379 26.981C44.6351 23.542 47.103 20.2804 50.421 17.8805C53.6768 15.5257 57.6451 14.0772 62.5509 13.9902ZM93.8885 44.3903C94.3343 45.1347 94.7925 45.8672 95.269 46.584C101.549 56.0293 112.928 57.114 118.971 57.114H128.295V61.7764H118.971C112.774 61.7763 99.093 60.7565 91.386 49.1648C90.6926 48.1218 90.0366 47.053 89.4087 45.9724C90.9692 45.596 92.4681 45.063 93.8885 44.3903ZM63.0215 18.6495C67.2563 18.6495 70.475 19.6743 73.0882 21.3297C75.7312 23.0039 77.8867 25.4067 79.8511 28.3542C81.8274 31.3195 83.5315 34.7096 85.356 38.3284C86.6182 40.8319 87.9347 43.4358 89.4087 45.9724C87.6495 46.3968 85.813 46.6238 83.9234 46.6238C71.0486 46.6238 60.6115 36.1867 60.6115 23.3119C60.6115 21.7473 60.7668 20.219 61.0607 18.7408C61.6886 18.6807 62.3416 18.6495 63.0215 18.6495ZM83.9234 0C96.7981 0.000120301 107.235 10.4372 107.235 23.3119C107.235 32.621 101.778 40.6539 93.8885 44.3903C92.3301 41.7884 90.9324 39.0333 89.519 36.2298C87.726 32.6733 85.8933 29.0137 83.7304 25.7684C81.5555 22.5052 78.9689 19.5356 75.5833 17.3909C72.1682 15.2276 68.0716 13.9865 63.0215 13.9865C62.8636 13.9865 62.7068 13.9874 62.5509 13.9902C66.1476 5.75547 74.363 0 83.9234 0Z" fill="#ffffff"/>
  </g>
</svg>
